<svg xmlns="http://www.w3.org/2000/svg" viewBox="0 0 24 24" fill="currentColor">
  <path d="M22.225 0H1.771C.792 0 0 .774 0 1.729v20.542C0 23.226.792 24 1.771 24h20.451C23.2 24 24 23.226 24 22.271V1.729C24 .774 23.2 0 22.225 0zM7.051 20.452H3.561V9h3.49v11.452zM5.306 7.433c-1.121 0-2.03-.91-2.03-2.03 0-1.12.909-2.03 2.03-2.03 1.12 0 2.03.91 2.03 2.03 0 1.12-.91 2.03-2.03 2.03zM20.452 20.452h-3.487v-5.563c0-1.327-.027-3.033-1.848-3.033-1.85 0-2.134 1.445-2.134 2.937v5.659H9.496V9h3.346v1.561h.048c.467-.885 1.606-1.818 3.305-1.818 3.535 0 4.257 2.328 4.257 5.355v6.354z"/>
</svg>
